<?xml version="1.0" encoding="utf-8"?>
<!-- Generator: Adobe Illustrator 16.0.0, SVG Export Plug-In . SVG Version: 6.00 Build 0)  -->
<!DOCTYPE svg PUBLIC "-//W3C//DTD SVG 1.1//EN" "http://www.w3.org/Graphics/SVG/1.1/DTD/svg11.dtd">
<svg version="1.1" id="Layer_1" xmlns="http://www.w3.org/2000/svg" xmlns:xlink="http://www.w3.org/1999/xlink" x="0px" y="0px"
	 width="340.16px" height="283.46px" viewBox="0 0 340.16 283.46" enable-background="new 0 0 340.16 283.46" xml:space="preserve">
<line fill="none" stroke="#00AEEF" stroke-width="2" stroke-miterlimit="10" x1="319.333" y1="21.667" x2="14" y2="264.667"/>
<line fill="none" stroke="#FF0025" stroke-width="2" stroke-miterlimit="10" x1="319.333" y1="82.419" x2="14" y2="82.419"/>
<line fill="none" stroke="#231F20" stroke-miterlimit="10" x1="14" y1="264.667" x2="319.333" y2="264.667"/>
<line fill="none" stroke="#231F20" stroke-miterlimit="10" x1="319.333" y1="264.667" x2="319.333" y2="21.667"/>
<text transform="matrix(1 0 0 1 262.083 14.9927)" font-family="'MyriadPro-Regular'" font-size="12">Cum. SP (in EC)</text>
<text transform="matrix(1 0 0 1 3.3335 280.0005)" font-family="'MyriadPro-Regular'" font-size="12">Begin Schooljaar</text>
<text transform="matrix(1 0 0 1 254.666 280.0005)" font-family="'MyriadPro-Regular'" font-size="12">Eind Schooljaar</text>
<text transform="matrix(1 0 0 1 322.251 264.6675)" font-family="'MyriadPro-Regular'" font-size="10">0</text>
<text transform="matrix(1 0 0 1 322.251 21.6675)" font-family="'MyriadPro-Regular'" font-size="9">60</text>
<text transform="matrix(1 0 0 1 322.251 82.4194)" enable-background="new    "><tspan x="0" y="0" font-family="'MyriadPro-Regular'" font-size="10">45</tspan><tspan x="0" y="7.2" font-family="'MyriadPro-Regular'" font-size="6">(NBSA)</tspan></text>
<text transform="matrix(0.8208 0.5713 -0.5713 0.8208 -11.2246 41.6118)" opacity="0.3" enable-background="new    " font-family="'MyriadPro-Regular'" font-size="83.6344">GEEN DATA</text>
</svg>
