<?xml version="1.0" encoding="utf-8"?>
<!-- Generator: Adobe Illustrator 16.0.0, SVG Export Plug-In . SVG Version: 6.00 Build 0)  -->
<!DOCTYPE svg PUBLIC "-//W3C//DTD SVG 1.1//EN" "http://www.w3.org/Graphics/SVG/1.1/DTD/svg11.dtd">
<svg version="1.1" id="Layer_1" xmlns="http://www.w3.org/2000/svg" xmlns:xlink="http://www.w3.org/1999/xlink" x="0px" y="0px"
	 width="340.1601563px" height="283.4599609px" viewBox="0 0 340.1601563 283.4599609"
	 enable-background="new 0 0 340.1601563 283.4599609" xml:space="preserve">
<line fill="none" stroke="#00AEEF" stroke-width="2" stroke-miterlimit="10" x1="319.3330078" y1="21.6669922" x2="14" y2="264.6669922"/>
<line fill="none" stroke="#FF0025" stroke-width="2" stroke-miterlimit="10" x1="319.3330078" y1="82.4189453" x2="14" y2="82.4189453"/>
<line fill="none" stroke="#231F20" stroke-miterlimit="10" x1="14" y1="264.6669922" x2="319.3330078" y2="264.6669922"/>
<line fill="none" stroke="#231F20" stroke-miterlimit="10" x1="319.3330078" y1="264.6669922" x2="319.3330078" y2="21.6669922"/>
<text transform="matrix(1 0 0 1 262.0830078 14.9921875)" font-family="'MyriadPro-Regular'" font-size="12">Cum. SP (in EC)</text>
<text transform="matrix(1 0 0 1 3.3334961 280)" font-family="'MyriadPro-Regular'" font-size="12">Begin Schooljaar</text>
<text transform="matrix(1 0 0 1 254.6660156 280)" font-family="'MyriadPro-Regular'" font-size="12">Eind Schooljaar</text>
<text transform="matrix(1 0 0 1 322.2509766 264.6669922)" font-family="'MyriadPro-Regular'" font-size="10">0</text>
<text transform="matrix(1 0 0 1 322.2509766 21.6669922)" font-family="'MyriadPro-Regular'" font-size="9">60</text>
<text transform="matrix(1 0 0 1 322.2509766 82.4189453)" font-family="'MyriadPro-Regular'" font-size="10">45</text>
<text transform="matrix(0.8207696 0.5712609 -0.57126 0.8207694 -11.2246094 41.6113281)" opacity="0.3" font-family="'MyriadPro-Regular'" font-size="83.6343765">GEEN DATA</text>
</svg>
